<svg width="146" height="33" viewBox="0 0 146 33" fill="none" xmlns="http://www.w3.org/2000/svg">
<g clip-path="url(#clip0_19_80)">
<path fill-rule="evenodd" clip-rule="evenodd" d="M12.8364 23.0564C11.7467 23.0564 10.7017 22.6247 9.93112 21.8562C9.16058 21.0877 8.7277 20.0454 8.7277 18.9586V0.108887H0.510254V18.9586C0.510254 25.7478 6.02909 31.2519 12.8364 31.2519H21.8756V23.0564H12.8364ZM37.4888 8.30442C36.5176 8.30442 35.5558 8.49521 34.6586 8.86589C33.7613 9.23656 32.946 9.77987 32.2592 10.4648C31.5725 11.1497 31.0277 11.9628 30.656 12.8577C30.2844 13.7526 30.0931 14.7118 30.0931 15.6804C30.0931 16.649 30.2844 17.6082 30.656 18.5031C31.0277 19.398 31.5725 20.2111 32.2592 20.896C32.946 21.5809 33.7613 22.1242 34.6586 22.4949C35.5558 22.8656 36.5176 23.0564 37.4888 23.0564C39.4502 23.0564 41.3314 22.2793 42.7183 20.896C44.1053 19.5127 44.8845 17.6366 44.8845 15.6804C44.8845 13.7242 44.1053 11.8481 42.7183 10.4648C41.3314 9.08153 39.4502 8.30442 37.4888 8.30442ZM21.8756 15.6804C21.8756 7.08083 28.8662 0.108887 37.4888 0.108887C46.1113 0.108887 53.1019 7.08083 53.1019 15.6804C53.1019 24.28 46.1113 31.2519 37.4888 31.2519C28.8662 31.2519 21.8756 24.28 21.8756 15.6804ZM126.237 8.30442C124.276 8.30442 122.395 9.08153 121.008 10.4648C119.621 11.8481 118.842 13.7242 118.842 15.6804C118.842 17.6366 119.621 19.5127 121.008 20.896C122.395 22.2793 124.276 23.0564 126.237 23.0564C128.199 23.0564 130.08 22.2793 131.467 20.896C132.854 19.5127 133.633 17.6366 133.633 15.6804C133.633 13.7242 132.854 11.8481 131.467 10.4648C130.08 9.08153 128.199 8.30442 126.237 8.30442ZM110.624 15.6804C110.624 7.08083 117.615 0.108887 126.237 0.108887C134.86 0.108887 141.85 7.08083 141.85 15.6804C141.85 24.28 134.86 31.2519 126.237 31.2519C117.615 31.2519 110.624 24.28 110.624 15.6804ZM70.3586 0.108887C61.736 0.108887 54.7454 7.08083 54.7454 15.6804C54.7454 24.28 61.736 31.2519 70.3586 31.2519H93.3674C94.9854 31.2519 96.5459 31.0061 98.0136 30.5504L102.407 32.891L107.146 24.0366C108.35 21.7825 108.98 19.2678 108.981 16.7139V15.6804C108.981 7.08083 101.99 0.108887 93.3674 0.108887H70.3586ZM100.763 15.6804C100.763 13.7242 99.9839 11.8481 98.597 10.4648C97.21 9.08153 95.3289 8.30442 93.3674 8.30442H70.3586C69.3874 8.30442 68.4256 8.49521 67.5284 8.86589C66.6311 9.23656 65.8158 9.77987 65.129 10.4648C64.4423 11.1497 63.8975 11.9628 63.5258 12.8577C63.1542 13.7526 62.9629 14.7118 62.9629 15.6804C62.9629 16.649 63.1542 17.6082 63.5258 18.5031C63.8975 19.398 64.4423 20.2111 65.129 20.896C65.8158 21.5809 66.6311 22.1242 67.5284 22.4949C68.4256 22.8656 69.3874 23.0564 70.3586 23.0564H93.3674C95.319 23.0564 97.1914 22.2872 98.5767 20.9163C99.9621 19.5455 100.748 17.684 100.763 15.7378V15.6804Z" fill="#FEFEFE"/>
<path d="M145.137 2.15777C145.137 2.70117 144.921 3.22231 144.536 3.60655C144.15 3.99079 143.628 4.20665 143.083 4.20665C142.538 4.20665 142.016 3.99079 141.63 3.60655C141.245 3.22231 141.029 2.70117 141.029 2.15777C141.029 1.61437 141.245 1.09323 141.63 0.708991C142.016 0.324751 142.538 0.108887 143.083 0.108887C143.628 0.108887 144.15 0.324751 144.536 0.708991C144.921 1.09323 145.137 1.61437 145.137 2.15777Z" fill="#FEFEFE"/>
</g>
<defs>
<clipPath id="clip0_19_80">
<rect width="144.627" height="32.7821" fill="white" transform="translate(0.510254 0.108887)"/>
</clipPath>
</defs>
</svg>
