<svg width="194" height="47" viewBox="0 0 194 47" fill="none" xmlns="http://www.w3.org/2000/svg">
<g clip-path="url(#clip0_19_84)">
<path d="M59.556 32.1638H73.1135V28.0802H64.3747V12.6987H59.556V32.1638Z" fill="#FEFEFE"/>
<path d="M81.1459 29.4416C79.213 29.4416 78.2057 27.7537 78.2057 25.2219C78.2057 22.6901 79.213 20.975 81.1459 20.975C83.0788 20.975 84.1133 22.6901 84.1133 25.2219C84.1133 27.7537 83.0788 29.4416 81.1459 29.4416ZM81.1731 32.5996C85.665 32.5996 88.6052 29.4144 88.6052 25.2219C88.6052 21.0294 85.665 17.8442 81.1731 17.8442C76.7084 17.8442 73.7137 21.0294 73.7137 25.2219C73.7137 29.4144 76.7084 32.5996 81.1731 32.5996Z" fill="#FEFEFE"/>
<path d="M96.3805 36.9825C98.4495 36.9825 100.273 36.5197 101.499 35.4308C102.615 34.4235 103.35 32.8989 103.35 30.8027V18.2253H99.1029V19.7226H99.0484C98.2317 18.5519 96.9794 17.8169 95.1282 17.8169C91.6707 17.8169 89.275 20.7026 89.275 24.7862C89.275 29.0604 92.188 31.4016 95.3187 31.4016C97.0066 31.4016 98.0684 30.721 98.8851 29.7954H98.994V31.1838C98.994 32.8717 98.2045 33.8518 96.326 33.8518C94.8559 33.8518 94.1209 33.2256 93.8759 32.4906H89.5745C90.0101 35.4036 92.5419 36.9825 96.3805 36.9825ZM96.3532 28.1075C94.6926 28.1075 93.6036 26.7463 93.6036 24.6501C93.6036 22.5266 94.6926 21.1654 96.3532 21.1654C98.2045 21.1654 99.1845 22.7444 99.1845 24.6229C99.1845 26.583 98.2861 28.1075 96.3532 28.1075Z" fill="#FEFEFE"/>
<path d="M112.082 29.4416C110.149 29.4416 109.142 27.7537 109.142 25.2219C109.142 22.6901 110.149 20.975 112.082 20.975C114.015 20.975 115.05 22.6901 115.05 25.2219C115.05 27.7537 114.015 29.4416 112.082 29.4416ZM112.109 32.5996C116.601 32.5996 119.542 29.4144 119.542 25.2219C119.542 21.0294 116.601 17.8442 112.109 17.8442C107.645 17.8442 104.65 21.0294 104.65 25.2219C104.65 29.4144 107.645 32.5996 112.109 32.5996Z" fill="#FEFEFE"/>
<path d="M120.837 32.1638H125.274V18.2252H120.837V32.1638ZM120.837 16.2923H125.274V12.6987H120.837V16.2923Z" fill="#FEFEFE"/>
<path d="M127.201 36.7647H131.638V30.721H131.693C132.564 31.8917 133.843 32.5995 135.64 32.5995C139.288 32.5995 141.711 29.7137 141.711 25.1946C141.711 21.0021 139.451 17.8169 135.749 17.8169C133.843 17.8169 132.482 18.6608 131.529 19.9131H131.447V18.2253H127.201V36.7647ZM134.497 29.1693C132.591 29.1693 131.502 27.6175 131.502 25.3579C131.502 23.0983 132.482 21.3832 134.415 21.3832C136.321 21.3832 137.219 22.9622 137.219 25.3579C137.219 27.7264 136.184 29.1693 134.497 29.1693Z" fill="#FEFEFE"/>
<path d="M148.935 32.5995C152.583 32.5995 155.279 31.0205 155.279 27.9714C155.279 24.4051 152.393 23.7789 149.943 23.3706C148.173 23.0439 146.594 22.9078 146.594 21.9277C146.594 21.0565 147.438 20.6482 148.527 20.6482C149.752 20.6482 150.596 21.0293 150.759 22.2816H154.843C154.625 19.532 152.502 17.8169 148.554 17.8169C145.26 17.8169 142.538 19.3414 142.538 22.2816C142.538 25.5485 145.124 26.2019 147.547 26.6102C149.398 26.9369 151.086 27.073 151.086 28.3253C151.086 29.2237 150.242 29.7137 148.908 29.7137C147.438 29.7137 146.512 29.0332 146.349 27.6447H142.157C142.293 30.721 144.852 32.5995 148.935 32.5995Z" fill="#FEFEFE"/>
<path d="M161.306 32.5721C163.239 32.5721 164.464 31.8098 165.472 30.4486H165.553V32.1637H169.8V18.2251H165.363V26.0111C165.363 27.6718 164.437 28.8152 162.913 28.8152C161.497 28.8152 160.816 27.9713 160.816 26.4467V18.2251H156.406V27.3723C156.406 30.4759 158.094 32.5721 161.306 32.5721Z" fill="#FEFEFE"/>
<path d="M171.73 32.1639H176.167V24.3506C176.167 22.69 176.984 21.5193 178.372 21.5193C179.706 21.5193 180.332 22.3905 180.332 23.8878V32.1639H184.77V24.3506C184.77 22.69 185.559 21.5193 186.975 21.5193C188.309 21.5193 188.935 22.3905 188.935 23.8878V32.1639H193.373V23.0983C193.373 19.9676 191.794 17.8169 188.636 17.8169C186.839 17.8169 185.342 18.5792 184.253 20.267H184.198C183.49 18.7697 182.102 17.8169 180.278 17.8169C178.263 17.8169 176.929 18.7697 176.058 20.2126H175.977V18.2253H171.73V32.1639Z" fill="#FEFEFE"/>
<path fill-rule="evenodd" clip-rule="evenodd" d="M24.1921 45.776C36.7216 45.776 46.8787 35.6189 46.8787 23.0894C46.8787 10.56 36.7216 0.402832 24.1921 0.402832C11.6626 0.402832 1.50549 10.56 1.50549 23.0894C1.50549 35.6189 11.6626 45.776 24.1921 45.776ZM31.2695 10.9712C31.614 9.7475 30.4265 9.02389 29.342 9.79656L14.2022 20.5821C13.026 21.42 13.211 23.0894 14.4801 23.0894H18.4668V23.0585H26.2367L19.9057 25.2924L17.1147 35.2077C16.7702 36.4314 17.9576 37.155 19.0423 36.3823L34.182 25.5968C35.3582 24.7589 35.1731 23.0894 33.9041 23.0894H27.8584L31.2695 10.9712Z" fill="#FEFEFE"/>
</g>
<defs>
<clipPath id="clip0_19_84">
<rect width="192.836" height="46.5075" fill="white" transform="translate(0.729614 0.246094)"/>
</clipPath>
</defs>
</svg>
